<mxfile host="app.diagrams.net" modified="2025-02-05T02:03:12.657Z" agent="Mozilla/5.0 (Windows NT 10.0; Win64; x64) AppleWebKit/537.36 (KHTML, like Gecko) Chrome/132.0.0.0 Safari/537.36" etag="9GNGeoOimM71F4Kye4h0" version="24.6.4" type="device">
  <diagram name="Page-1" id="xVLE4y-8F-pOeW9Exz3-">
    <mxGraphModel dx="541" dy="369" grid="1" gridSize="10" guides="1" tooltips="1" connect="1" arrows="1" fold="1" page="1" pageScale="1" pageWidth="827" pageHeight="1169" math="0" shadow="0">
      <root>
        <mxCell id="0" />
        <mxCell id="1" parent="0" />
        <mxCell id="ARJ43cfhW23Tsd-24MF_-3" value="User" style="rounded=0;whiteSpace=wrap;html=1;" vertex="1" parent="1">
          <mxGeometry x="100" y="120" width="100" height="40" as="geometry" />
        </mxCell>
        <mxCell id="ARJ43cfhW23Tsd-24MF_-4" value="Budget" style="rounded=0;whiteSpace=wrap;html=1;" vertex="1" parent="1">
          <mxGeometry x="320" y="120" width="100" height="40" as="geometry" />
        </mxCell>
        <mxCell id="ARJ43cfhW23Tsd-24MF_-5" value="Category" style="rounded=0;whiteSpace=wrap;html=1;" vertex="1" parent="1">
          <mxGeometry x="220" y="240" width="100" height="40" as="geometry" />
        </mxCell>
        <mxCell id="ARJ43cfhW23Tsd-24MF_-6" value="Transaction" style="rounded=0;whiteSpace=wrap;html=1;" vertex="1" parent="1">
          <mxGeometry x="100" y="480" width="100" height="40" as="geometry" />
        </mxCell>
        <mxCell id="ARJ43cfhW23Tsd-24MF_-7" value="Account" style="rounded=0;whiteSpace=wrap;html=1;" vertex="1" parent="1">
          <mxGeometry x="379" y="480" width="100" height="40" as="geometry" />
        </mxCell>
        <mxCell id="ARJ43cfhW23Tsd-24MF_-8" value="Name" style="ellipse;whiteSpace=wrap;html=1;" vertex="1" parent="1">
          <mxGeometry x="30" y="30" width="70" height="40" as="geometry" />
        </mxCell>
        <mxCell id="ARJ43cfhW23Tsd-24MF_-9" value="Password" style="ellipse;whiteSpace=wrap;html=1;" vertex="1" parent="1">
          <mxGeometry x="10" y="150" width="70" height="40" as="geometry" />
        </mxCell>
        <mxCell id="ARJ43cfhW23Tsd-24MF_-11" value="Email" style="ellipse;whiteSpace=wrap;html=1;" vertex="1" parent="1">
          <mxGeometry x="160" y="40" width="70" height="40" as="geometry" />
        </mxCell>
        <mxCell id="ARJ43cfhW23Tsd-24MF_-23" value="User_ID" style="ellipse;whiteSpace=wrap;html=1;" vertex="1" parent="1">
          <mxGeometry x="10" y="80" width="80" height="50" as="geometry" />
        </mxCell>
        <mxCell id="ARJ43cfhW23Tsd-24MF_-27" value="" style="line;strokeWidth=1;rotatable=0;dashed=0;labelPosition=right;align=left;verticalAlign=middle;spacingTop=0;spacingLeft=6;points=[];portConstraint=eastwest;" vertex="1" parent="1">
          <mxGeometry x="20" y="110" width="50" height="10" as="geometry" />
        </mxCell>
        <mxCell id="ARJ43cfhW23Tsd-24MF_-30" value="Budget_ID" style="ellipse;whiteSpace=wrap;html=1;" vertex="1" parent="1">
          <mxGeometry x="290" y="40" width="70" height="40" as="geometry" />
        </mxCell>
        <mxCell id="ARJ43cfhW23Tsd-24MF_-31" value="" style="line;strokeWidth=1;rotatable=0;dashed=0;labelPosition=right;align=left;verticalAlign=middle;spacingTop=0;spacingLeft=6;points=[];portConstraint=eastwest;" vertex="1" parent="1">
          <mxGeometry x="300" y="60" width="50" height="20" as="geometry" />
        </mxCell>
        <mxCell id="ARJ43cfhW23Tsd-24MF_-32" value="Name" style="ellipse;whiteSpace=wrap;html=1;" vertex="1" parent="1">
          <mxGeometry x="379" y="40" width="70" height="40" as="geometry" />
        </mxCell>
        <mxCell id="ARJ43cfhW23Tsd-24MF_-33" value="Type" style="ellipse;whiteSpace=wrap;html=1;" vertex="1" parent="1">
          <mxGeometry x="440" y="80" width="70" height="40" as="geometry" />
        </mxCell>
        <mxCell id="ARJ43cfhW23Tsd-24MF_-34" value="Start_Date" style="ellipse;whiteSpace=wrap;html=1;" vertex="1" parent="1">
          <mxGeometry x="250" y="80" width="70" height="40" as="geometry" />
        </mxCell>
        <mxCell id="ARJ43cfhW23Tsd-24MF_-35" value="End_Date" style="ellipse;whiteSpace=wrap;html=1;" vertex="1" parent="1">
          <mxGeometry x="435" y="130" width="70" height="40" as="geometry" />
        </mxCell>
        <mxCell id="ARJ43cfhW23Tsd-24MF_-36" value="Category_ID" style="ellipse;whiteSpace=wrap;html=1;" vertex="1" parent="1">
          <mxGeometry x="100" y="200" width="80" height="50" as="geometry" />
        </mxCell>
        <mxCell id="ARJ43cfhW23Tsd-24MF_-37" value="Name" style="ellipse;whiteSpace=wrap;html=1;" vertex="1" parent="1">
          <mxGeometry x="125" y="260" width="50" height="40" as="geometry" />
        </mxCell>
        <mxCell id="ARJ43cfhW23Tsd-24MF_-38" value="Transaction_ID" style="ellipse;whiteSpace=wrap;html=1;" vertex="1" parent="1">
          <mxGeometry x="70" y="370" width="100" height="50" as="geometry" />
        </mxCell>
        <mxCell id="ARJ43cfhW23Tsd-24MF_-39" value="Date" style="ellipse;whiteSpace=wrap;html=1;" vertex="1" parent="1">
          <mxGeometry x="20" y="420" width="80" height="40" as="geometry" />
        </mxCell>
        <mxCell id="ARJ43cfhW23Tsd-24MF_-40" value="Amount" style="ellipse;whiteSpace=wrap;html=1;" vertex="1" parent="1">
          <mxGeometry x="10" y="470" width="80" height="40" as="geometry" />
        </mxCell>
        <mxCell id="ARJ43cfhW23Tsd-24MF_-41" value="Discription" style="ellipse;whiteSpace=wrap;html=1;" vertex="1" parent="1">
          <mxGeometry x="10" y="520" width="80" height="40" as="geometry" />
        </mxCell>
        <mxCell id="ARJ43cfhW23Tsd-24MF_-42" value="Account_ID" style="ellipse;whiteSpace=wrap;html=1;" vertex="1" parent="1">
          <mxGeometry x="320" y="375" width="80" height="40" as="geometry" />
        </mxCell>
        <mxCell id="ARJ43cfhW23Tsd-24MF_-43" value="Account_Type" style="ellipse;whiteSpace=wrap;html=1;" vertex="1" parent="1">
          <mxGeometry x="420" y="370" width="90" height="45" as="geometry" />
        </mxCell>
        <mxCell id="ARJ43cfhW23Tsd-24MF_-44" value="Balance" style="ellipse;whiteSpace=wrap;html=1;" vertex="1" parent="1">
          <mxGeometry x="440" y="565" width="90" height="40" as="geometry" />
        </mxCell>
        <mxCell id="ARJ43cfhW23Tsd-24MF_-46" value="Account_Name" style="ellipse;whiteSpace=wrap;html=1;" vertex="1" parent="1">
          <mxGeometry x="325" y="565" width="90" height="40" as="geometry" />
        </mxCell>
        <mxCell id="ARJ43cfhW23Tsd-24MF_-51" value="" style="line;strokeWidth=1;rotatable=0;dashed=0;labelPosition=right;align=left;verticalAlign=middle;spacingTop=0;spacingLeft=6;points=[];portConstraint=eastwest;" vertex="1" parent="1">
          <mxGeometry x="80" y="400" width="80" height="10" as="geometry" />
        </mxCell>
        <mxCell id="ARJ43cfhW23Tsd-24MF_-52" value="" style="line;strokeWidth=1;rotatable=0;dashed=0;labelPosition=right;align=left;verticalAlign=middle;spacingTop=0;spacingLeft=6;points=[];portConstraint=eastwest;" vertex="1" parent="1">
          <mxGeometry x="330" y="400" width="60" height="10" as="geometry" />
        </mxCell>
        <mxCell id="ARJ43cfhW23Tsd-24MF_-54" value="" style="endArrow=none;html=1;rounded=0;exitX=0.75;exitY=0;exitDx=0;exitDy=0;" edge="1" parent="1" source="ARJ43cfhW23Tsd-24MF_-3">
          <mxGeometry width="50" height="50" relative="1" as="geometry">
            <mxPoint x="150" y="120" as="sourcePoint" />
            <mxPoint x="190" y="80" as="targetPoint" />
          </mxGeometry>
        </mxCell>
        <mxCell id="ARJ43cfhW23Tsd-24MF_-55" value="" style="endArrow=none;html=1;rounded=0;exitX=0.75;exitY=0;exitDx=0;exitDy=0;" edge="1" parent="1" source="ARJ43cfhW23Tsd-24MF_-4">
          <mxGeometry width="50" height="50" relative="1" as="geometry">
            <mxPoint x="400" y="110" as="sourcePoint" />
            <mxPoint x="414" y="80" as="targetPoint" />
          </mxGeometry>
        </mxCell>
        <mxCell id="ARJ43cfhW23Tsd-24MF_-56" value="" style="endArrow=none;html=1;rounded=0;exitX=0.75;exitY=0;exitDx=0;exitDy=0;entryX=1;entryY=1;entryDx=0;entryDy=0;" edge="1" parent="1" target="ARJ43cfhW23Tsd-24MF_-8">
          <mxGeometry width="50" height="50" relative="1" as="geometry">
            <mxPoint x="125" y="120" as="sourcePoint" />
            <mxPoint x="140" y="80" as="targetPoint" />
          </mxGeometry>
        </mxCell>
        <mxCell id="ARJ43cfhW23Tsd-24MF_-57" value="" style="endArrow=none;html=1;rounded=0;exitX=0;exitY=0.25;exitDx=0;exitDy=0;entryX=1;entryY=1;entryDx=0;entryDy=0;" edge="1" parent="1" source="ARJ43cfhW23Tsd-24MF_-3" target="ARJ43cfhW23Tsd-24MF_-23">
          <mxGeometry width="50" height="50" relative="1" as="geometry">
            <mxPoint x="107" y="138" as="sourcePoint" />
            <mxPoint x="80" y="80" as="targetPoint" />
          </mxGeometry>
        </mxCell>
        <mxCell id="ARJ43cfhW23Tsd-24MF_-60" value="" style="endArrow=none;html=1;rounded=0;" edge="1" parent="1" source="ARJ43cfhW23Tsd-24MF_-9">
          <mxGeometry width="50" height="50" relative="1" as="geometry">
            <mxPoint x="80" y="160" as="sourcePoint" />
            <mxPoint x="100" y="140" as="targetPoint" />
          </mxGeometry>
        </mxCell>
        <mxCell id="ARJ43cfhW23Tsd-24MF_-61" value="" style="endArrow=none;html=1;rounded=0;" edge="1" parent="1">
          <mxGeometry width="50" height="50" relative="1" as="geometry">
            <mxPoint x="420" y="130" as="sourcePoint" />
            <mxPoint x="450" y="114" as="targetPoint" />
          </mxGeometry>
        </mxCell>
        <mxCell id="ARJ43cfhW23Tsd-24MF_-62" value="" style="endArrow=none;html=1;rounded=0;entryX=0;entryY=0.5;entryDx=0;entryDy=0;" edge="1" parent="1" target="ARJ43cfhW23Tsd-24MF_-35">
          <mxGeometry width="50" height="50" relative="1" as="geometry">
            <mxPoint x="420" y="150" as="sourcePoint" />
            <mxPoint x="435" y="144" as="targetPoint" />
          </mxGeometry>
        </mxCell>
        <mxCell id="ARJ43cfhW23Tsd-24MF_-63" value="" style="endArrow=none;html=1;rounded=0;exitX=0.5;exitY=0;exitDx=0;exitDy=0;" edge="1" parent="1" source="ARJ43cfhW23Tsd-24MF_-4" target="ARJ43cfhW23Tsd-24MF_-31">
          <mxGeometry width="50" height="50" relative="1" as="geometry">
            <mxPoint x="329" y="120" as="sourcePoint" />
            <mxPoint x="379" y="70" as="targetPoint" />
          </mxGeometry>
        </mxCell>
        <mxCell id="ARJ43cfhW23Tsd-24MF_-64" value="" style="endArrow=none;html=1;rounded=0;exitX=0;exitY=0.5;exitDx=0;exitDy=0;" edge="1" parent="1" source="ARJ43cfhW23Tsd-24MF_-4">
          <mxGeometry width="50" height="50" relative="1" as="geometry">
            <mxPoint x="330" y="160" as="sourcePoint" />
            <mxPoint x="294" y="120" as="targetPoint" />
          </mxGeometry>
        </mxCell>
        <mxCell id="ARJ43cfhW23Tsd-24MF_-65" value="" style="endArrow=none;html=1;rounded=0;exitX=0;exitY=0.25;exitDx=0;exitDy=0;" edge="1" parent="1" source="ARJ43cfhW23Tsd-24MF_-5">
          <mxGeometry width="50" height="50" relative="1" as="geometry">
            <mxPoint x="206" y="250" as="sourcePoint" />
            <mxPoint x="180" y="230" as="targetPoint" />
          </mxGeometry>
        </mxCell>
        <mxCell id="ARJ43cfhW23Tsd-24MF_-67" value="" style="endArrow=none;html=1;rounded=0;entryX=1;entryY=0.5;entryDx=0;entryDy=0;" edge="1" parent="1" target="ARJ43cfhW23Tsd-24MF_-37">
          <mxGeometry width="50" height="50" relative="1" as="geometry">
            <mxPoint x="220" y="260" as="sourcePoint" />
            <mxPoint x="190" y="240" as="targetPoint" />
          </mxGeometry>
        </mxCell>
        <mxCell id="ARJ43cfhW23Tsd-24MF_-68" value="" style="endArrow=none;html=1;rounded=0;exitX=0.25;exitY=0;exitDx=0;exitDy=0;entryX=1;entryY=1;entryDx=0;entryDy=0;" edge="1" parent="1" source="ARJ43cfhW23Tsd-24MF_-6" target="ARJ43cfhW23Tsd-24MF_-39">
          <mxGeometry width="50" height="50" relative="1" as="geometry">
            <mxPoint x="130" y="470" as="sourcePoint" />
            <mxPoint x="90" y="450" as="targetPoint" />
          </mxGeometry>
        </mxCell>
        <mxCell id="ARJ43cfhW23Tsd-24MF_-69" value="" style="endArrow=none;html=1;rounded=0;exitX=0.5;exitY=0;exitDx=0;exitDy=0;entryX=0.5;entryY=1;entryDx=0;entryDy=0;" edge="1" parent="1" source="ARJ43cfhW23Tsd-24MF_-6" target="ARJ43cfhW23Tsd-24MF_-38">
          <mxGeometry width="50" height="50" relative="1" as="geometry">
            <mxPoint x="135" y="490" as="sourcePoint" />
            <mxPoint x="150" y="420" as="targetPoint" />
          </mxGeometry>
        </mxCell>
        <mxCell id="ARJ43cfhW23Tsd-24MF_-70" value="" style="endArrow=none;html=1;rounded=0;exitX=0;exitY=0.75;exitDx=0;exitDy=0;entryX=1;entryY=1;entryDx=0;entryDy=0;" edge="1" parent="1" source="ARJ43cfhW23Tsd-24MF_-6" target="ARJ43cfhW23Tsd-24MF_-40">
          <mxGeometry width="50" height="50" relative="1" as="geometry">
            <mxPoint x="125" y="526" as="sourcePoint" />
            <mxPoint x="88" y="500" as="targetPoint" />
          </mxGeometry>
        </mxCell>
        <mxCell id="ARJ43cfhW23Tsd-24MF_-71" value="" style="endArrow=none;html=1;rounded=0;entryX=0.101;entryY=1.012;entryDx=0;entryDy=0;entryPerimeter=0;" edge="1" parent="1" target="ARJ43cfhW23Tsd-24MF_-6">
          <mxGeometry width="50" height="50" relative="1" as="geometry">
            <mxPoint x="90" y="540" as="sourcePoint" />
            <mxPoint x="140" y="490" as="targetPoint" />
          </mxGeometry>
        </mxCell>
        <mxCell id="ARJ43cfhW23Tsd-24MF_-72" value="" style="endArrow=none;html=1;rounded=0;exitX=0.127;exitY=-0.012;exitDx=0;exitDy=0;entryX=0.5;entryY=1;entryDx=0;entryDy=0;exitPerimeter=0;" edge="1" parent="1" source="ARJ43cfhW23Tsd-24MF_-7">
          <mxGeometry width="50" height="50" relative="1" as="geometry">
            <mxPoint x="385" y="475" as="sourcePoint" />
            <mxPoint x="355" y="415" as="targetPoint" />
          </mxGeometry>
        </mxCell>
        <mxCell id="ARJ43cfhW23Tsd-24MF_-73" value="" style="endArrow=none;html=1;rounded=0;entryX=0.5;entryY=1;entryDx=0;entryDy=0;" edge="1" parent="1" target="ARJ43cfhW23Tsd-24MF_-43">
          <mxGeometry width="50" height="50" relative="1" as="geometry">
            <mxPoint x="420" y="480" as="sourcePoint" />
            <mxPoint x="450" y="420" as="targetPoint" />
            <Array as="points" />
          </mxGeometry>
        </mxCell>
        <mxCell id="ARJ43cfhW23Tsd-24MF_-74" value="" style="endArrow=none;html=1;rounded=0;exitX=0.374;exitY=0.055;exitDx=0;exitDy=0;entryX=0.5;entryY=1;entryDx=0;entryDy=0;exitPerimeter=0;" edge="1" parent="1" source="ARJ43cfhW23Tsd-24MF_-44">
          <mxGeometry width="50" height="50" relative="1" as="geometry">
            <mxPoint x="486" y="585" as="sourcePoint" />
            <mxPoint x="449" y="520" as="targetPoint" />
          </mxGeometry>
        </mxCell>
        <mxCell id="ARJ43cfhW23Tsd-24MF_-75" value="" style="endArrow=none;html=1;rounded=0;entryX=0.5;entryY=1;entryDx=0;entryDy=0;exitX=0.628;exitY=0.007;exitDx=0;exitDy=0;exitPerimeter=0;" edge="1" parent="1" source="ARJ43cfhW23Tsd-24MF_-46">
          <mxGeometry width="50" height="50" relative="1" as="geometry">
            <mxPoint x="380" y="560" as="sourcePoint" />
            <mxPoint x="410" y="520" as="targetPoint" />
          </mxGeometry>
        </mxCell>
        <mxCell id="ARJ43cfhW23Tsd-24MF_-76" value="Has" style="rhombus;whiteSpace=wrap;html=1;" vertex="1" parent="1">
          <mxGeometry x="230" y="130" width="60" height="35" as="geometry" />
        </mxCell>
        <mxCell id="ARJ43cfhW23Tsd-24MF_-77" value="Has" style="rhombus;whiteSpace=wrap;html=1;rotation=40;" vertex="1" parent="1">
          <mxGeometry x="310" y="180" width="50" height="45" as="geometry" />
        </mxCell>
        <mxCell id="ARJ43cfhW23Tsd-24MF_-79" value="Has" style="rhombus;whiteSpace=wrap;html=1;rotation=20;" vertex="1" parent="1">
          <mxGeometry x="190" y="355" width="50" height="45" as="geometry" />
        </mxCell>
        <mxCell id="ARJ43cfhW23Tsd-24MF_-80" value="Have" style="rhombus;whiteSpace=wrap;html=1;rotation=45;" vertex="1" parent="1">
          <mxGeometry x="245" y="450" width="50" height="45" as="geometry" />
        </mxCell>
        <mxCell id="ARJ43cfhW23Tsd-24MF_-84" value="" style="endArrow=none;html=1;rounded=0;exitX=1;exitY=0.5;exitDx=0;exitDy=0;" edge="1" parent="1" source="ARJ43cfhW23Tsd-24MF_-76">
          <mxGeometry width="50" height="50" relative="1" as="geometry">
            <mxPoint x="290" y="160" as="sourcePoint" />
            <mxPoint x="320" y="144" as="targetPoint" />
          </mxGeometry>
        </mxCell>
        <mxCell id="ARJ43cfhW23Tsd-24MF_-85" value="" style="endArrow=none;html=1;rounded=0;exitX=1;exitY=0.5;exitDx=0;exitDy=0;" edge="1" parent="1" source="ARJ43cfhW23Tsd-24MF_-3">
          <mxGeometry width="50" height="50" relative="1" as="geometry">
            <mxPoint x="200" y="152" as="sourcePoint" />
            <mxPoint x="230" y="148" as="targetPoint" />
          </mxGeometry>
        </mxCell>
        <mxCell id="ARJ43cfhW23Tsd-24MF_-86" value="" style="endArrow=none;html=1;rounded=0;exitX=0.75;exitY=0;exitDx=0;exitDy=0;" edge="1" parent="1" source="ARJ43cfhW23Tsd-24MF_-5">
          <mxGeometry width="50" height="50" relative="1" as="geometry">
            <mxPoint x="290" y="225" as="sourcePoint" />
            <mxPoint x="320" y="220" as="targetPoint" />
          </mxGeometry>
        </mxCell>
        <mxCell id="ARJ43cfhW23Tsd-24MF_-87" value="" style="endArrow=none;html=1;rounded=0;exitX=0.5;exitY=0;exitDx=0;exitDy=0;" edge="1" parent="1" source="ARJ43cfhW23Tsd-24MF_-77">
          <mxGeometry width="50" height="50" relative="1" as="geometry">
            <mxPoint x="347.5" y="179.5" as="sourcePoint" />
            <mxPoint x="372.5" y="160.5" as="targetPoint" />
          </mxGeometry>
        </mxCell>
        <mxCell id="ARJ43cfhW23Tsd-24MF_-91" value="" style="endArrow=none;html=1;rounded=0;entryX=0.895;entryY=1.004;entryDx=0;entryDy=0;exitX=0.5;exitY=0;exitDx=0;exitDy=0;entryPerimeter=0;" edge="1" parent="1" source="ARJ43cfhW23Tsd-24MF_-79" target="ARJ43cfhW23Tsd-24MF_-4">
          <mxGeometry width="50" height="50" relative="1" as="geometry">
            <mxPoint x="249.9954532248276" y="384.91691603231703" as="sourcePoint" />
            <mxPoint x="438.7" y="190.00000000000006" as="targetPoint" />
            <Array as="points">
              <mxPoint x="340" y="290" />
            </Array>
          </mxGeometry>
        </mxCell>
        <mxCell id="ARJ43cfhW23Tsd-24MF_-92" value="" style="endArrow=none;html=1;rounded=0;entryX=0.5;entryY=1;entryDx=0;entryDy=0;exitX=0.75;exitY=0;exitDx=0;exitDy=0;" edge="1" parent="1" source="ARJ43cfhW23Tsd-24MF_-6">
          <mxGeometry width="50" height="50" relative="1" as="geometry">
            <mxPoint x="160" y="475" as="sourcePoint" />
            <mxPoint x="207" y="399" as="targetPoint" />
          </mxGeometry>
        </mxCell>
        <mxCell id="ARJ43cfhW23Tsd-24MF_-93" value="" style="endArrow=none;html=1;rounded=0;entryX=0;entryY=0.5;entryDx=0;entryDy=0;exitX=1;exitY=0.5;exitDx=0;exitDy=0;" edge="1" parent="1" source="ARJ43cfhW23Tsd-24MF_-80" target="ARJ43cfhW23Tsd-24MF_-7">
          <mxGeometry width="50" height="50" relative="1" as="geometry">
            <mxPoint x="310" y="496" as="sourcePoint" />
            <mxPoint x="342" y="415" as="targetPoint" />
          </mxGeometry>
        </mxCell>
        <mxCell id="ARJ43cfhW23Tsd-24MF_-94" value="" style="endArrow=none;html=1;rounded=0;exitX=0.25;exitY=1;exitDx=0;exitDy=0;entryX=0;entryY=0.5;entryDx=0;entryDy=0;" edge="1" parent="1" source="ARJ43cfhW23Tsd-24MF_-3" target="ARJ43cfhW23Tsd-24MF_-80">
          <mxGeometry width="50" height="50" relative="1" as="geometry">
            <mxPoint x="270" y="450" as="sourcePoint" />
            <mxPoint x="330" y="450.5" as="targetPoint" />
            <Array as="points">
              <mxPoint x="50" y="240" />
              <mxPoint x="160" y="360" />
            </Array>
          </mxGeometry>
        </mxCell>
        <mxCell id="ARJ43cfhW23Tsd-24MF_-95" value="1" style="text;html=1;align=center;verticalAlign=middle;resizable=0;points=[];autosize=1;strokeColor=none;fillColor=none;" vertex="1" parent="1">
          <mxGeometry x="195" y="118" width="30" height="30" as="geometry" />
        </mxCell>
        <mxCell id="ARJ43cfhW23Tsd-24MF_-98" value="M" style="text;html=1;align=center;verticalAlign=middle;resizable=0;points=[];autosize=1;strokeColor=none;fillColor=none;" vertex="1" parent="1">
          <mxGeometry x="295" y="140" width="30" height="30" as="geometry" />
        </mxCell>
        <mxCell id="ARJ43cfhW23Tsd-24MF_-99" value="M" style="text;html=1;align=center;verticalAlign=middle;resizable=0;points=[];autosize=1;strokeColor=none;fillColor=none;" vertex="1" parent="1">
          <mxGeometry x="280" y="215" width="30" height="30" as="geometry" />
        </mxCell>
        <mxCell id="ARJ43cfhW23Tsd-24MF_-100" value="M" style="text;html=1;align=center;verticalAlign=middle;resizable=0;points=[];autosize=1;strokeColor=none;fillColor=none;" vertex="1" parent="1">
          <mxGeometry x="360" y="155" width="30" height="30" as="geometry" />
        </mxCell>
        <mxCell id="ARJ43cfhW23Tsd-24MF_-102" value="M" style="text;html=1;align=center;verticalAlign=middle;resizable=0;points=[];autosize=1;strokeColor=none;fillColor=none;" vertex="1" parent="1">
          <mxGeometry x="398.5" y="160" width="30" height="30" as="geometry" />
        </mxCell>
        <mxCell id="ARJ43cfhW23Tsd-24MF_-104" value="M" style="text;html=1;align=center;verticalAlign=middle;resizable=0;points=[];autosize=1;strokeColor=none;fillColor=none;" vertex="1" parent="1">
          <mxGeometry x="175" y="450" width="30" height="30" as="geometry" />
        </mxCell>
        <mxCell id="ARJ43cfhW23Tsd-24MF_-105" value="1" style="text;html=1;align=center;verticalAlign=middle;resizable=0;points=[];autosize=1;strokeColor=none;fillColor=none;" vertex="1" parent="1">
          <mxGeometry x="105" y="160" width="30" height="30" as="geometry" />
        </mxCell>
        <mxCell id="ARJ43cfhW23Tsd-24MF_-106" value="1" style="text;html=1;align=center;verticalAlign=middle;resizable=0;points=[];autosize=1;strokeColor=none;fillColor=none;" vertex="1" parent="1">
          <mxGeometry x="349" y="475" width="30" height="30" as="geometry" />
        </mxCell>
      </root>
    </mxGraphModel>
  </diagram>
</mxfile>
